<svg version="1" xmlns="http://www.w3.org/2000/svg" width="682.667" height="682.667" viewBox="0 0 512.000000 512.000000"><path d="M107.7 56.8c-10.5 2.6-19 12.6-19.6 23-.1.8-.6 1-1.3.6-1-.5-1-.4-.2.5.7.8.9 2.5.4 4.6-.4 1.9-.5 3.6-.3 3.9.9.8.8 25.6 0 25.6-.5 0-.5.5-.1 1.2 1 1.6 1.1 6.7.1 6.1-.5-.3-.5.3.1 1.3 1.1 2.3.5 4.6-1.1 3.8-.7-.3-.5.1.5.8 1.2 1 1.3 1.9.7 3.1-.6.9-.6 1.7-.2 1.7.5 0 .9.9.9 2s-.4 2-.9 2c-.4 0-.5.5-.2 1.1.4.5.8 5.4.9 10.7.1 5.3.5 10.2.9 10.9.4.6.1 1.4-.5 1.6-1 .4-1 .6 0 .6.6.1 1.2.7 1.2 1.5 0 1.7 4 8.9 5.2 9.4.5.2.6.8.2 1.3-.3.5.2.9 1 .9.9 0 1.6.3 1.6.8 0 .4 1.4 1.3 3 2 1.7.8 2.8 1.7 2.6 2-.2.4 1 .8 2.7.9 1.8.2 3.3.7 3.5 1.2.2.5 1.2.6 2.4.3 1.6-.4 1.9-.2 1.3.8-.6.9-.4 1.1.5.5 1.9-1.2 29-1.2 28.3-.1-.4.5 0 .6.7.1 1.8-1.1 8-1.3 8.6-.3.3.5 1 .5 1.6.2 1.5-.9 20.8-1.2 20.2-.3-.2.4 0 1.1.6 1.4.6.4.9.1.8-.6-.3-1.1.9-1.3 7.2-1 1.8.1 1.9.4 1 2.1-.6 1.2-.7 2-.1 2s.6 1.1.1 3-.5 3 .1 3 .5.8-.1 2c-.6 1.1-.7 2-.3 2 1 0 1 14.1 0 15.7-.4.6-.4 1.4 0 1.6 1.1.7.9 15-.2 16.7-.6.9-.4 1.1.4.5 1-.6 1.1-.3.2 1.4-.7 1.1-.8 2.1-.3 2.1 1 0 .8 4.3-.4 6.1-.4.7-.3 1 .2.7 1.1-.7 1.2 11.2.1 12.9-.4.6-.3 1.4.2 1.7 1 .7.9 2.5-.2 4.3-.4.6-.4 1.4 0 1.6 1.1.7.9 15-.2 16.7-.6.9-.4 1.1.4.5 1-.6 1.1-.3.2 1.4-.7 1.1-.8 2.1-.4 2.1 1 0 .9 18.1 0 19.7-.4.6-.3 1.4.2 1.7 1 .7.9 2.5-.2 4.2-.3.6-.4 1.4 0 1.8.9.9.9 21.7 0 22.3-.4.2-.4 1 0 1.6 1 1.5 1 3.5.1 6.9-.3 1.5-.3 3 .2 3.3.9.6.8 2.4-.3 4.1-.3.6-.4 1.4 0 1.7.9.9.9 13.8 0 14.4-.4.2-.4 1 0 1.6 1 1.5 1 3.5.1 6.9-.3 1.5-.3 3 .2 3.3.9.6.8 2.4-.3 4.2-.4.6-.3 1.4.1 1.7 1.1.6.8 6.8-.3 8.6-.6.9-.4 1.1.4.5 1-.6 1.1-.3.2 1.4-.7 1.1-.8 2.1-.3 2.1 1 0 .8 4.3-.4 6.1-.4.7-.3 1 .2.7 1.1-.7 1.2 11.2.1 12.9-.4.6-.3 1.4.2 1.7 1 .7.9 2.5-.2 4.2-.3.6-.4 1.4 0 1.7.3.4.8 2.8 1 5.4.2 2.7.5 5.9.6 7.3.1 1.4.8 3.1 1.5 3.9.7.7 1.1 2 .8 2.7-.3.8-.1 1.4.4 1.4s1.7 1.3 2.7 3c.9 1.6 2.3 3 3 3 .7 0 1.3.4 1.3.9s.9 1.3 2 1.6c1.1.4 1.7 1.1 1.4 1.7-.4.7-.2.8.4.4.7-.4 1.8-.4 2.5.1 1.3.8 2.1 1 8.1 1.8 2.1.3 4.2.7 4.6 1 .5.3 1.1.1 1.5-.5.4-.6 1.1-.7 1.8-.3 1.6 1 13 1 14.3.1.7-.5 1.8-.2 2.8.7.9.9 1.6 1.3 1.6.8 0-1.6 4.3-1.2 5.7.5 1.2 1.6 1.3 1.6.7-.1-.5-1.5-.2-1.7 2-1.3 1.4.2 2.8 0 3.1-.5.4-.5 2.1-.3 4.1.6 1.9.8 3.2 1 2.8.4-.4-.6 1.2-1 4.3-.9 2.6.1 5.9 0 7.3-.2 1.4-.2 3.6.3 5 1.2 1.5.9 2.1 1 1.7.2-.8-1.1.5-1.7 2.8-1.2 3 .7 12.7.5 13.1-.2.3-.5 1.2-.4 2 .3 1.1.9 1.4.9 1.4 0 0-.7.5-.9 1-.6.6.4.8 1 .5 1.5-.3.5 0 1.2.6 1.6.8.4.9.3.5-.5-.9-1.3 3.4-3.2 4.9-2.1.6.4 2.4.5 4 .2 1.7-.3 4.9-.6 7.2-.6 2.3-.1 4.1-.6 4-1.1-.1-.6.5-1 1.3-1s2.1-.7 2.8-1.5c1.2-1.3 1.3-1.3.7 0-.4 1-.2.9.8-.3.8-.9 2-1.7 2.6-1.7.7 0 .9-.4.6-1-.3-.5.1-1 1-1s1.4-.4 1-.9c-.3-.6.4-1.5 1.5-2.1 1.1-.6 1.9-1.4 1.9-1.8-.2-1.4 1.3-5.2 2-4.8.8.5 1.4-5.7 1.5-15.1.1-4.1.5-7.3 1.1-7.3.7 0 .7-.3 0-.8-.5-.4-1-2.1-1-3.7 0-1.7.5-3.3 1-3.7.7-.5.7-.8 0-.8-1.1 0-1.5-8-.4-8 .4 0 .3-1.7-.2-3.8-1-4.4-1-4.2.2-6.5.5-.9.6-1.7.2-1.7-.9 0-.8-16.2.1-18.5.3-.8.2-1.5-.2-1.5-1.1 0-.8-6.4.3-7.2.7-.5.7-.8 0-.8-1 0-1.3-174.6-.3-175.6 1-.9 18.6-.9 18.1 0-.4.5 0 .6.7.1 1.8-1.1 8-1.3 8.6-.3.3.5 1 .5 1.6.2.6-.4 10.4-.8 21.7-1 17.8-.2 22.6-.5 25.1-1.4.3-.1.8-.2 1.3-.1.4 0 .7-.4.7-1s.5-.9 1.2-.7c1.1.4 3.7-1.3 7.9-5.4.9-.9 2-1.3 2.4-1 .3.4.3-.1-.1-1.1-.3-.9-.2-1.7.4-1.7.5 0 1.2-.9 1.5-2.1.4-1.4 1-1.8 1.9-1.3 1 .6 1.1.5.1-.8-.7-.8-.9-1.8-.5-2.2.4-.4.7-1.3.7-1.9.1-.7.7-1.1 1.5-.9 1 .2 1.1 0 .3-1-1.2-1.5-1.1-8.7.2-10.8.6-.9.4-1.1-.6-.5-1.2.7-1.2.6-.1-.7.9-1.2 1-1.8.2-2.3-.8-.5-.8-1.1-.1-1.9.7-.9.7-1.6-.1-2.4-.8-.8-.8-1.5.2-2.7.7-.9.8-1.5.2-1.5-1.2 0-1.1-1.8.2-3.9.7-1.1.6-1.2-.5-.6-1.2.7-1.2.6-.1-.7.9-1.2 1-1.8.2-2.3-.8-.5-.8-1 0-2 .8-.9.8-1.5 0-2-.5-.3-1-1.1-1-1.6 0-.6.4-.8.9-.4.6.3.6-.6.1-2.4-.5-1.9-.4-3.3.3-4.1.9-1 .9-1.1-.3-.5-1.3.8-1.3.6-.2-.7.9-1.2 1-1.8.2-2.3-.8-.5-.8-1.1-.1-1.9.7-.9.7-1.6 0-2.3-.8-.8-.8-1.7 0-3.1.8-1.5.8-2.3.1-2.7-.8-.5-.7-1.2.2-2.3 1.1-1.3 1.1-1.4-.2-.7-1.2.7-1.3.6-.3-.6.9-1.2 1-1.8.1-2.7-.8-.8-.8-1.5.2-2.7.7-.8.8-1.5.3-1.5s-.9-.9-1-2c-.1-1.3.2-1.8 1-1.3.7.4.6 0-.2-1-.9-1.2-1-1.7-.2-1.7.7 0 .9-.5.4-1.3-.4-.6-.8-2.6-.9-4.2-.5-8.5-4.3-15.5-11.1-20.4-3.9-2.8-5.9-3.6-10.9-4.6-1-.2-2.1-.4-2.4-.6-.3-.1-65.1-.3-144-.3-120-.2-144.5.1-149.3 1.2zm79.8 22.3c-.3 1.2-.1 1.8.3 1.5.4-.4.7-1.3.7-1.9 0-1.8 207.2-2.2 209.3-.4 1.3 1 1.4.9.8-.1-.7-1.1-.4-1.2 1.3-.2 3 1.6 3.9 4.4 3.7 12.3 0 3.7.3 6.7.7 6.7.5 0 .6.4.2.9-.8 1.4-1.3 7.1-.6 7.1.4 0 .4 2.7.1 6-.3 3.3-.2 6.7.3 7.6.7 1.2.6 1.5-.2 1-.6-.4-1.1-.2-1.1.3 0 .6.3 1.1.8 1.1.8 0 .6 10.2-.3 13.7-.3 1.3-.1 2.3.5 2.3s.9.4.6.8c-.4.7-.6 4.6-.6 13.4 0 3.4-.3 4.8-1.2 4.8-.4 0-.7.3-.7.7.4 2.3-.4 3.1-2.6 2.9-1.3-.2-2.2.1-1.9.5.3.5-19.4.9-44 .9H309v11.7c0 227.2-.2 256.9-1.4 258.5-.7 1-2.4 2.1-3.7 2.6-1.8.6-85.6.9-94 .3-.8 0-2.4-.7-3.4-1.5-1.6-1.2-2-2.9-2.2-10.7-.1-5.1-.3-10.5-.4-11.9-.3-4.8.1-6.1 1.4-5.4.8.5.8.3-.2-.9-.7-.9-1.1-2.6-.8-3.7.3-1.1.1-2.3-.4-2.6-.5-.3-.7-.9-.4-1.4.5-.8 1-20.4.5-22.5-.1-.6-.1-2.4 0-4 .6-7.7.5-11.7-.2-12.1-.4-.3-.5-1-.3-1.7.9-2.2 1.1-13.8.4-14.3-.5-.3-.6-1-.4-1.7.8-2.1 1.1-13.8.4-14.3-.4-.2-.4-1.9 0-3.6.4-1.8.4-4.9.1-6.8-.7-4.4-.1-7.2 1.4-6.3.6.4.5-.1-.3-1-.7-.9-1.1-2.6-.8-3.7.3-1.1.1-2.3-.4-2.6-.5-.3-.7-1-.3-1.5.5-.9.9-33 .4-35.4-.6-2.6.1-4.6 1.3-3.9.8.5.8.3-.2-.9-.7-.9-1.1-2.6-.8-3.7.3-1.1.1-2.3-.4-2.6-.5-.3-.7-1-.3-1.5.5-.9.9-32.9.4-35.4-.6-2.6.1-4.6 1.3-3.9.8.5.8.3-.2-.9-.7-.9-1.1-2.6-.8-3.7.3-1.1.1-2.3-.4-2.6-.5-.3-.7-.9-.4-1.4.8-1.3 1-21.8.3-22.6-.4-.4-.3-1.5.2-2.5.6-1.1.6-2 .1-2.3-.5-.4-.6-1.8-.2-3.4.4-1.5.4-4.2 0-6-.4-1.7-.3-3.2.2-3.2.4 0 .6-.7.3-1.5-.5-1.3-6.3-1.5-43.9-1.5-23.8 0-44.6-.3-46.3-.6-2.4-.5-3.4-1.4-4.1-3.8-.5-1.7-1-18.9-1-38.4-.1-31 .1-35.5 1.5-37.7.9-1.4 2-2.3 2.4-2 .5.3 1.1.1 1.5-.5.4-.6 13.4-1 37-1h36.4l-.4 2.1z"/><path d="M145.6 79.9c.9.9 3.4.9 3.4.1 0-.5-.9-.8-2-.7-1 .1-1.7.3-1.4.6zM151 80.2c0 .4.4.8.9.8.6 0 1.2-.4 1.5-.8.3-.5-.1-.9-.9-.9s-1.5.4-1.5.9zM155 80.1c0 .5.5.7 1 .4.6-.3 1-.8 1-1.1 0-.2-.4-.4-1-.4-.5 0-1 .5-1 1.1zM259.5 80c.3.5.8 1 1.1 1 .2 0 .4-.5.4-1 0-.6-.5-1-1.1-1-.5 0-.7.4-.4 1zM263 80.2c0 .4.4.8.9.8.6 0 1.2-.4 1.5-.8.3-.5-.1-.9-.9-.9s-1.5.4-1.5.9zM267 79.8c0 .5.7.9 1.5.9s1.2-.4.9-.9c-.3-.4-.9-.8-1.5-.8-.5 0-.9.4-.9.8zM305.6 79.9c.9.9 3.4.9 3.4.1 0-.5-.9-.8-2-.7-1 .1-1.7.3-1.4.6zM311 80.2c0 .4.4.8.9.8.6 0 1.2-.4 1.5-.8.3-.5-.1-.9-.9-.9s-1.5.4-1.5.9zM315 80.1c0 .5.5.7 1 .4.6-.3 1-.8 1-1.1 0-.2-.4-.4-1-.4-.5 0-1 .5-1 1.1zM323.5 80c.3.5.8 1 1.1 1 .2 0 .4-.5.4-1 0-.6-.5-1-1.1-1-.5 0-.7.4-.4 1zM327 80.2c0 .4.4.8.9.8.6 0 1.2-.4 1.5-.8.3-.5-.1-.9-.9-.9s-1.5.4-1.5.9zM331 79.8c0 .5.7.9 1.5.9s1.2-.4.9-.9c-.3-.4-.9-.8-1.5-.8-.5 0-.9.4-.9.8zM369.6 79.9c.9.9 3.4.9 3.4.1 0-.5-.9-.8-2-.7-1 .1-1.7.3-1.4.6zM375.3 80.7c0 .9.4 1 1.4.2.7-.6 1.3-1.2 1.3-1.4 0-.1-.6-.2-1.3-.2-.8 0-1.4.6-1.4 1.4zM393.7 80.5c-.4.8-.3 1.6.1 1.9.4.3.9-.4.9-1.5.2-2.3-.3-2.5-1-.4zM121.5 80.9c-.3.5-.2 1.2.3 1.5.5.3.9-.1.9-.9 0-1.7-.3-1.9-1.2-.6zM117.5 82c.3.5.8 1 1.1 1 .2 0 .4-.5.4-1 0-.6-.5-1-1.1-1-.5 0-.7.4-.4 1zM169.5 82c.3.5.8 1 1.1 1 .2 0 .4-.5.4-1 0-.6-.5-1-1.1-1-.5 0-.7.4-.4 1zM179.6 81.8c-.3.5.1.9.9.9s1.2-.4.9-.9c-.3-.4-.7-.8-.9-.8-.2 0-.6.4-.9.8zM209.6 81.8c-.3.5.1.9.9.9s1.2-.4.9-.9c-.3-.4-.7-.8-.9-.8-.2 0-.6.4-.9.8zM241.6 81.8c-.3.5.1.9.9.9s1.2-.4.9-.9c-.3-.4-.7-.8-.9-.8-.2 0-.6.4-.9.8zM283.6 81.8c-.3.5.1.9.9.9s1.2-.4.9-.9c-.3-.4-.7-.8-.9-.8-.2 0-.6.4-.9.8zM347.6 81.8c-.3.5.1.9.9.9s1.2-.4.9-.9c-.3-.4-.7-.8-.9-.8-.2 0-.6.4-.9.8zM384 82c-1.2.7-1 .9.7.7 1.2 0 1.9-.5 1.7-.9-.6-1-.6-1-2.4.2zM389.5 82c.3.5.8 1 1.1 1 .2 0 .4-.5.4-1 0-.6-.5-1-1.1-1-.5 0-.7.4-.4 1zM396.5 86c-.3.6.1.7.9.4 1.8-.7 2.1-1.4.7-1.4-.6 0-1.3.4-1.6 1zM171.3 88.5c0 .8.4 1.2.9.9.5-.3.6-1 .3-1.5-.9-1.3-1.2-1.1-1.2.6zM179.5 88c-.3.5-.1 1 .4 1 .6 0 1.1-.5 1.1-1 0-.6-.2-1-.4-1-.3 0-.8.4-1.1 1zM139.3 118.2V129h8.4c5.4 0 8.2.4 7.8 1-1.1 1.7.7 1.1 2.1-.8 1.3-1.6 1.3-1.6 1.4.3.1 2 .1 2 1.5.1 1.4-1.8 2-1.5 1.6.8-.1.5.5.4 1.3-.3s3.6-1.1 6.3-1c2.7.1 5.4 0 6-.4.6-.4 1.4-.1 1.7.5.5 1.1.7 1.1 1.2 0 .3-.6 1.1-.9 1.7-.5 1.6.9 6.8.9 7.4-.1.3-.4.9-.2 1.4.5.8 1.2 1 1.2 1.8 0 .5-.7 1.1-.9 1.4-.5.6 1 5.8 1 7.4.1.6-.4 1.4-.1 1.7.5.5 1.1.7 1.1 1.2 0 .3-.6 1.1-.9 1.7-.5.6.3 3.5.5 6.5.4 3.7-.2 5.2.1 4.7.8-1.1 1.8.7 1.2 2.1-.7 1.3-1.6 1.3-1.6 1.4.3.1 2 .1 2 1.5.1 1.4-1.8 2-1.5 1.5.9-.1.5.4.4 1.1-.3 1.8-1.7 5.3-1.6 4.6.3-.4.8-.1 1.7.5 2.1.6.4.8.3.5-.3-.4-.6 0-1.9.8-2.9 1.4-1.9 1.4-1.9 1.5.1.1 2 .1 2 1.5.1 1.3-1.7 1.9-1.5 1.7.5-.1.3.5.6 1.3.6s1.2-.4.9-.9c-.3-.4.5-.8 1.6-.8 1.7 0 2.1.4 1.6 1.7-.4 1.2.1.9 1.5-.7 1.7-2.1 2-2.2 1.4-.5-.5 1.6-.4 1.8.6.7.7-.6 1.5-1.2 1.9-1.2.9 0 .5 14.4-.4 15.9-.6 1-.5 1.2.2.7.7-.4 1.2-.1 1.2.8s-.6 1.6-1.2 1.6c-.9 0-.9.3-.3.8 1.2.8 1.4 33.6.3 34.8-.4.3-.4 1.4.1 2.3.9 2 .8 44.7-.1 45.7-.4.3-.4 1.4.1 2.3.9 2 .8 44.7-.1 45.7-.4.3-.4 1.4.1 2.3.9 2 .8 44.7-.1 45.7-.4.3-.4 1.4.1 2.3.9 2 .8 44.7-.1 45.7-.4.3-.4 1.4.1 2.3.4.9.7 7.3.7 14.2-.1 11.6 0 12.7 1.7 12.4.9-.2 2.1-.6 2.6-1 .5-.3 1.7.2 2.5 1.1.9.8 1.6 1.2 1.6.7s1.1-1 2.5-1.1c1.4-.1 2.5.3 2.5.8 0 .6.5 1 1.1 1 .5 0 .7-.5.4-1.1-.5-.7.3-.9 2.1-.6 3.5.5 5-.9 4.7-4.6-.1-1.9.2-2.5 1-2 .9.5.9.3.1-.8-1.5-1.9-1.5-13.9 0-13.9.8 0 .8-.2 0-.8-1.5-.9-1.4-17.2.1-17.2.7 0 .7-.3 0-.8-1.4-1-1.5-6.5-.1-7.4.7-.5.7-.8 0-.8-1.4 0-1.4-6.3 0-7.2.8-.6.8-.8 0-.8-1.5 0-1.5-13 0-13 .8 0 .8-.3 0-.8-1.5-.9-1.4-17.2.1-17.2.6 0 .7-.3 0-.8-1.5-1-1.6-7.2-.2-7.2.8 0 .8-.3.2-.8-1.4-1-1.5-6.5-.1-7.4.8-.6.8-.8 0-.8-1.5 0-1.5-13 0-13 .8 0 .8-.3 0-.8-1.5-.9-1.4-17.2.1-17.2.7 0 .7-.3 0-.8-1.4-1-1.5-6.5-.1-7.4.7-.5.7-.8.1-.8-1.5 0-1.6-7-.1-7 .7 0 .7-.3.1-.8-1.5-1-1.6-7.2-.2-7.2.8 0 .8-.3.2-.8-1.4-1-1.5-6.5-.1-7.4.8-.6.8-.8 0-.8-1.5 0-1.5-13 0-13 .8 0 .8-.3 0-.8-1.5-.9-1.4-17.2.1-17.2.6 0 .7-.3 0-.8-1.5-1-1.6-7.2-.2-7.2.8 0 .8-.3.2-.8-1.4-1-1.5-6.5-.1-7.4.8-.6.8-.8 0-.8-1.5 0-1.5-13 0-13 .8 0 .8-.3 0-.8-1.5-.9-1.4-17.2.1-17.2.7 0 .7-.3 0-.8-1.5-1-1.6-15.3-.1-14.5.8.5.8.3 0-.8-.6-.8-1-3.7-1-6.4l.1-5h5c2.8 0 5.3-.4 5.7-1 .5-.6.8-.7.8 0 0 .6 3.8 1 9.5 1s9.5-.4 9.5-1 .5-.3 1 .5 1 1.1 1 .6c0-.5.8-.2 1.7.5 1.1 1 1.4 1 .9.1-.4-.7-.2-1.2.6-1.2s2 .6 2.7 1.2c1.1 1.1 1.2 1 .6-.1s.4-1.2 5.4-.9c3.9.3 6.1 0 6.1-.6 0-.7.3-.8.8-.1.4.5 3.1 1 6 1 2.8 0 5.2-.5 5.2-1 0-.6.5-.3 1 .5s1 1.1 1 .6c0-.5.8-.2 1.7.5 1.1 1 1.4 1 .9.1-.4-.7-.2-1.2.6-1.2s2 .6 2.7 1.2c1.1 1.1 1.2 1 .6-.1s.4-1.2 5.4-.9c3.7.2 6.2 0 6.5-.6.3-.7.5-.7.5-.1.1.6 4.3.9 10.8.8 14.8-.2 13.9-.1 12.5-1.5-1.4-1.4-1.6-3.2-.2-2.3.6.4.7-.2.1-1.8s-.6-2.8.2-3.6c.6-.6.7-1.1.1-1.1-.5 0-1-2.6-.9-5.8v-5.7l-117.1-.1H139.3v10.8z"/><path d="M177.3 132.9c0 1.1.5 1.8.9 1.5.4-.3.5-1.1.1-1.9-.7-2.1-1.2-1.9-1 .4zM182.4 131.8c.4.3 1.4.7 2.2.8.9.1 1.3 0 1-.4-.4-.3-1.4-.7-2.2-.8-.9-.1-1.3 0-1 .4zM201 132c0 .5.5 1 1.1 1 .5 0 .7-.5.4-1-.3-.6-.8-1-1.1-1-.2 0-.4.4-.4 1zM208 132c-.9.6-1 1-.3 1 .6 0 1.5-.5 1.8-1 .8-1.2.4-1.2-1.5 0zM271 131.4c0 .2.7.7 1.6 1 .8.3 1.2.2.9-.4-.6-1-2.5-1.4-2.5-.6zM169.6 134.2c.3.4 1.1.5 1.9.1 2.1-.7 1.9-1.2-.4-1-1.1 0-1.8.5-1.5.9zM187 133.5c0 .7 3 1.3 3.4.7.3-.4-.4-.9-1.5-.9-1-.1-1.9 0-1.9.2zM197.5 133.9c-.3.5-.2 1.2.3 1.5.5.3.9-.1.9-.9 0-1.7-.3-1.9-1.2-.6zM288.6 133.8c-.3.5.1.9.9.9s1.2-.4.9-.9c-.3-.4-.7-.8-.9-.8-.2 0-.6.4-.9.8zM303.5 134.1c-.3.4.2.6 1 .5 2.1-.3 2.8-1.3 1-1.3-.9 0-1.8.4-2 .8zM309 133.4c0 .2.7.7 1.6 1 .8.3 1.2.2.9-.4-.6-1-2.5-1.4-2.5-.6zM319.9 134.7c-1.2 1.6-1.2 1.7.2.6.9-.7 2-.9 2.4-.5.5.4.5.1.1-.6-.9-1.6-1.1-1.5-2.7.5zM335.5 134.1c-.3.4.2.6 1 .5 2.1-.3 2.8-1.3 1-1.3-.9 0-1.8.4-2 .8zM341 133.4c0 .2.7.7 1.6 1 .8.3 1.2.2.9-.4-.6-1-2.5-1.4-2.5-.6zM282.9 135.7c-1.3 1.6-1.2 1.7.4.4 1.6-1.3 2.1-2.1 1.3-2.1-.2 0-1 .8-1.7 1.7zM182.6 136.2c.3.5 1 .6 1.5.3 1.3-.9 1.1-1.2-.6-1.2-.8 0-1.2.4-.9.9zM179.5 139.9c-.3.5-.2 1.2.3 1.5.5.3.9-.1.9-.9 0-1.7-.3-1.9-1.2-.6zM271.6 140.7c-.6 1.4-.5 1.5.5.6.7-.7 1-1.5.7-1.8-.3-.3-.9.2-1.2 1.2zM165.3 185.5c0 .8.4 1.2.9.9.5-.3.6-1 .3-1.5-.9-1.3-1.2-1.1-1.2.6zM373.3 185.5c0 .8.4 1.2.9.9.5-.3.6-1 .3-1.5-.9-1.3-1.2-1.1-1.2.6zM107.6 186.2c.3.4 1.1.5 1.9.1 2.1-.7 1.9-1.2-.4-1-1.1 0-1.8.5-1.5.9zM113.5 186c.3.5.8 1 1.1 1 .2 0 .4-.5.4-1 0-.6-.5-1-1.1-1-.5 0-.7.4-.4 1zM117.5 186c.3.5.8 1 1.1 1 .2 0 .4-.5.4-1 0-.6-.5-1-1.1-1-.5 0-.7.4-.4 1zM137.5 186c.3.5.8 1 1.1 1 .2 0 .4-.5.4-1 0-.6-.5-1-1.1-1-.5 0-.7.4-.4 1zM141 186.1c0 .5.5.7 1 .4.6-.3 1-.8 1-1.1 0-.2-.4-.4-1-.4-.5 0-1 .5-1 1.1zM345.5 186c.3.5.8 1 1.1 1 .2 0 .4-.5.4-1 0-.6-.5-1-1.1-1-.5 0-.7.4-.4 1zM349 186.1c0 .5.5.7 1 .4.6-.3 1-.8 1-1.1 0-.2-.4-.4-1-.4-.5 0-1 .5-1 1.1zM385 186.1c0 .5.5.7 1 .4.6-.3 1-.8 1-1.1 0-.2-.4-.4-1-.4-.5 0-1 .5-1 1.1zM393 186.1c0 .5.5.7 1 .4.6-.3 1-.8 1-1.1 0-.2-.4-.4-1-.4-.5 0-1 .5-1 1.1zM400.5 186c-.3.6.1.7.9.4 1.8-.7 2.1-1.4.7-1.4-.6 0-1.3.4-1.6 1zM355 186.4c0 .2.8 1 1.8 1.7 1.5 1.3 1.6 1.2.3-.4s-2.1-2.1-2.1-1.3zM147 187.4c0 .2.7.7 1.6 1 .8.3 1.2.2.9-.4-.6-1-2.5-1.4-2.5-.6zM337.4 187.8c.4.3 1.4.7 2.2.8.9.1 1.3 0 1-.4-.4-.3-1.4-.7-2.2-.8-.9-.1-1.3 0-1 .4zM404.7 188.1c.7.7 1.5 1 1.8.7.3-.3-.2-.9-1.2-1.2-1.4-.6-1.5-.5-.6.5zM334.7 206.1c.7.7 1.5 1 1.8.7.3-.3-.2-.9-1.2-1.2-1.4-.6-1.5-.5-.6.5zM193 454.1c0 .5.5.7 1 .4.6-.3 1-.8 1-1.1 0-.2-.4-.4-1-.4-.5 0-1 .5-1 1.1zM218 458c-.9.6-1 1-.3 1 .6 0 1.5-.5 1.8-1 .8-1.2.4-1.2-1.5 0zM262.8 457.7c.7.3 1.6.2 1.9-.1.4-.3-.2-.6-1.3-.5-1.1 0-1.4.3-.6.6zM274 457.4c0 .2.8 1 1.8 1.7 1.5 1.3 1.6 1.2.3-.4s-2.1-2.1-2.1-1.3zM294.7 458.1c.7.7 1.5 1 1.8.7.3-.3-.2-.9-1.2-1.2-1.4-.6-1.5-.5-.6.5zM281.5 459.1c-.4.6-.5 1.2-.2 1.5.2.3.7-.2 1-1.1.7-1.7.1-2-.8-.4zM289.5 460c-.3.5-.1 1 .4 1 .6 0 1.1-.5 1.1-1 0-.6-.2-1-.4-1-.3 0-.8.4-1.1 1zM235.5 461.1c-.4.6-.5 1.2-.2 1.5.2.3.7-.2 1-1.1.7-1.7.1-2-.8-.4zM225.5 461.9c-.3.5-.2 1.2.3 1.5.5.3.9-.1.9-.9 0-1.7-.3-1.9-1.2-.6zM241.5 461.9c-.3.5-.2 1.2.3 1.5.5.3.9-.1.9-.9 0-1.7-.3-1.9-1.2-.6zM277.5 464c.3.5.8 1 1.1 1 .2 0 .4-.5.4-1 0-.6-.5-1-1.1-1-.5 0-.7.4-.4 1z"/></svg>