<svg xmlns="http://www.w3.org/2000/svg" viewBox="0 0 512 512">
    <path fill="#EFEDF2" d="M484.5,61.633h-47.12v25.321c0,11.046-8.954,20-20,20h-1.218c-11.046,0-20-8.954-20-20V61.633 H118.178v25.321c0,11.046-8.954,20-20,20h-1.218c-11.046,0-20-8.954-20-20V61.633H27.5c-11.046,0-20,8.954-20,20V484.5 c0,11.046,8.954,20,20,20h457c11.046,0,20-8.954,20-20V81.633C504.5,70.587,495.545,61.633,484.5,61.633z"/>
    <path fill="#E5DAEA" d="M484.5,61.633h-47.12v25.321c0,5-1.847,9.56-4.88,13.066V412.5c0,11.046-8.954,20-20,20H7.5v52 c0,11.046,8.954,20,20,20h457c11.046,0,20-8.954,20-20V81.633C504.5,70.587,495.545,61.633,484.5,61.633z"/>
    <path fill="#FF5578" d="M257.17,284.163c-81.4-60.922-135.341,63.353,0,123.44 C392.511,347.516,338.57,223.241,257.17,284.163z"/>
    <path fill="#ED3C61" d="M281.624,270.846c36.581,15.261,39.798,84.191-41.137,128.52c5.21,2.854,10.761,5.608,16.683,8.237 C378.355,353.801,347.781,248.543,281.624,270.846z"/>
    <path fill="#4F3454" d="M98.178,106.954h-1.218c-11.046,0-20-8.954-20-20V27.5c0-11.046,8.954-20,20-20h1.218 c11.046,0,20,8.954,20,20v59.454C118.178,97.999,109.224,106.954,98.178,106.954z"/>
    <path fill="#4F3454" d="M417.379,106.954h-1.218c-11.046,0-20-8.954-20-20V27.5c0-11.046,8.954-20,20-20h1.218 c11.046,0,20,8.954,20,20v59.454C437.379,97.999,428.425,106.954,417.379,106.954z"/>
    <path fill="#FACF39" d="M484.5,61.633h-47.12v25.321c0,11.046-8.954,20-20,20h-1.218c-11.046,0-20-8.954-20-20V61.633 H118.178v25.321c0,11.046-8.954,20-20,20h-1.218c-11.046,0-20-8.954-20-20V61.633H27.5c-11.046,0-20,8.954-20,20v85 c0,11.046,8.954,20,20,20h457c11.046,0,20-8.954,20-20v-85C504.5,70.587,495.545,61.633,484.5,61.633z"/>
    <path fill="#FDE8A5" d="M484.5,61.633h-47.12v25.321c0,11.046-8.954,20-20,20h-1.218c-11.046,0-20-8.954-20-20V61.633 H118.178v25.321c0,11.046-8.954,20-20,20h-1.218c-11.046,0-20-8.954-20-20V61.633H27.5c-11.046,0-20,8.954-20,20v85 c0,11.046,8.954,20,20,20h457c11.046,0,20-8.954,20-20v-85C504.5,70.587,495.545,61.633,484.5,61.633z"/>
    <path fill="#FEDA6C" d="M484.5,61.633h-47.12v25.321c0,4.2-1.3,8.093-3.512,11.311v88.368H484.5c11.046,0,20-8.954,20-20 v-85C504.5,70.587,495.545,61.633,484.5,61.633z"/>
    <path d="M257.17,274.956c-22.789-15.434-45.939-18.899-64.147-9.43c-16.84,8.758-26.492,26.971-25.82,48.719 c0.55,17.798,7.927,36.026,21.334,52.711c15.234,18.96,37.303,34.942,65.591,47.501c0.969,0.43,2.006,0.645,3.043,0.645 s2.074-0.215,3.043-0.645c28.288-12.559,50.356-28.541,65.591-47.501c13.407-16.685,20.784-34.913,21.334-52.711 c0.672-21.748-8.98-39.961-25.82-48.719C303.11,256.055,279.958,259.523,257.17,274.956z M332.145,313.782 c-0.313,10.122-3.695,25.934-18.033,43.779c-13.184,16.408-32.33,30.463-56.941,41.81c-24.611-11.347-43.758-25.402-56.941-41.81 c-14.338-17.845-17.721-33.657-18.033-43.779c-0.49-15.849,6.145-28.913,17.748-34.948c4.576-2.38,9.691-3.552,15.18-3.552 c11.415,0,24.44,5.071,37.553,14.885c2.664,1.994,6.324,1.994,8.988,0c19.416-14.532,38.636-18.662,52.732-11.333 C326,284.869,332.635,297.933,332.145,313.782z"/>
    <path d="M91.04,497H27.5c-6.893,0-12.5-5.607-12.5-12.5V191.125c3.752,1.923,8.002,3.009,12.5,3.009h368.662 c4.143,0,7.5-3.358,7.5-7.5s-3.357-7.5-7.5-7.5H27.5c-6.893,0-12.5-5.607-12.5-12.5v-85c0-6.893,5.607-12.5,12.5-12.5h41.961 v17.821c0,15.164,12.337,27.5,27.5,27.5h1.217c0.237,0,0.473-0.003,0.709-0.009c13.425-0.341,24.488-10.35,26.474-23.309 c0.035-0.227,0.067-0.456,0.096-0.685c0.044-0.344,0.081-0.689,0.112-1.037c0.072-0.811,0.109-1.632,0.109-2.461V69.133h36.194 c4.143,0,7.5-3.358,7.5-7.5s-3.357-7.5-7.5-7.5h-36.194V27.5c0-15.164-12.337-27.5-27.5-27.5h-1.217 c-15.163,0-27.5,12.336-27.5,27.5v26.633H27.5c-15.163,0-27.5,12.336-27.5,27.5V484.5C0,499.664,12.337,512,27.5,512h63.54 c4.143,0,7.5-3.358,7.5-7.5S95.183,497,91.04,497z M84.461,27.5c0-6.893,5.607-12.5,12.5-12.5h1.217c6.893,0,12.5,5.607,12.5,12.5 v59.454c0,6.893-5.607,12.5-12.5,12.5h-1.217c-6.893,0-12.5-5.607-12.5-12.5V27.5z"/>
    <path d="M484.5,54.133h-39.621V27.5c0-15.164-12.337-27.5-27.5-27.5h-1.217c-15.163,0-27.5,12.336-27.5,27.5v26.633h-191.79 c-4.143,0-7.5,3.358-7.5,7.5s3.357,7.5,7.5,7.5h191.79v17.821c0,15.164,12.337,27.5,27.5,27.5h1.217 c15.163,0,27.5-12.336,27.5-27.5V69.133H484.5c6.893,0,12.5,5.607,12.5,12.5v85c0,6.893-5.607,12.5-12.5,12.5h-53.338 c-4.143,0-7.5,3.358-7.5,7.5s3.357,7.5,7.5,7.5H484.5c4.498,0,8.748-1.086,12.5-3.009V341.89c0,4.142,3.357,7.5,7.5,7.5 s7.5-3.358,7.5-7.5V81.633C512,66.469,499.663,54.133,484.5,54.133z M429.879,86.954c0,6.893-5.607,12.5-12.5,12.5h-1.217 c-6.893,0-12.5-5.607-12.5-12.5V27.5c0-6.893,5.607-12.5,12.5-12.5h1.217c6.893,0,12.5,5.607,12.5,12.5V86.954z"/>
    <path d="M504.5,369.39c-4.143,0-7.5,3.358-7.5,7.5V484.5c0,6.893-5.607,12.5-12.5,12.5H126.04c-4.143,0-7.5,3.358-7.5,7.5 s3.357,7.5,7.5,7.5H484.5c15.163,0,27.5-12.336,27.5-27.5V376.89C512,372.748,508.643,369.39,504.5,369.39z"/>
    <path d="M142.548,124.133c0,4.142,3.357,7.5,7.5,7.5h214.244c4.143,0,7.5-3.358,7.5-7.5s-3.357-7.5-7.5-7.5H150.048 C145.905,116.633,142.548,119.991,142.548,124.133z"/>
</svg>