<svg xmlns="http://www.w3.org/2000/svg" viewBox="0 0 512 512">
    <path fill="#FFDD77" d="M120.364,66.416c41.314,0,93.381,50.946,93.381,113.787c0,62.85-61.001,129.278-93.381,162.097 c-32.4-32.846-93.372-99.256-93.372-162.097S79.05,66.416,120.364,66.416z"/>
    <path fill="#FFCC3D" d="M120.364,66.416c61.976,0,112.214,50.946,112.214,113.787c0,62.85-63.638,129.278-112.214,162.097 c32.381-32.818,74.81-99.247,74.81-162.097C195.173,117.362,161.678,66.416,120.364,66.416z"/>
    <path fill="#F9F0B5" d="M45.564,180.203c0,62.841,42.4,129.249,74.781,162.078C71.778,309.463,8.159,243.044,8.159,180.203 S58.397,66.416,120.364,66.416C79.05,66.416,45.564,117.362,45.564,180.203z"/>
    <polygon fill="#FFDD77" points="120.367,334.359 101.927,368.26 138.805,368.26"/>
    <path fill="#C2D280" d="M392.458,71.484c-41.635,0-94.109,49.774-94.109,111.168c0,61.404,61.476,126.303,94.109,158.367 c32.651-32.092,94.1-96.973,94.1-158.367C486.558,121.258,434.094,71.484,392.458,71.484z"/>
    <path fill="#DBE8A4" d="M392.458,71.484c-62.459,0-113.088,49.774-113.088,111.168c0,61.404,64.134,126.303,113.088,158.367 c-32.633-32.063-75.393-96.963-75.393-158.367C317.065,121.258,350.822,71.484,392.458,71.484z"/>
    <path fill="#84C688" d="M467.841,182.652c0,61.394-42.731,126.276-75.364,158.349 c48.945-32.063,113.06-96.954,113.06-158.349S454.908,71.484,392.458,71.484C434.094,71.484,467.841,121.258,467.841,182.652z"/>
    <polygon fill="#C2D280" points="392.456,337.637 411.038,367.471 373.872,367.471"/>
    <path fill="#FF455E" d="M256.411,8.443c48.466,0,109.546,58.934,109.546,131.628c0,72.704-71.56,149.548-109.546,187.512 c-38.008-37.997-109.535-114.819-109.535-187.512S207.945,8.443,256.411,8.443z"/>
    <path fill="#ED2F49" d="M256.411,8.443c72.704,0,131.638,58.934,131.638,131.628c0,72.704-74.654,149.548-131.638,187.512 c37.986-37.964,87.759-114.808,87.759-187.512C344.17,67.377,304.876,8.443,256.411,8.443z"/>
    <path fill="#FE7074" d="M168.663,140.07c0,72.693,49.74,149.515,87.726,187.49 c-56.974-37.964-131.606-114.797-131.606-187.49S183.718,8.443,256.411,8.443C207.945,8.443,168.663,67.377,168.663,140.07z"/>
    <polygon fill="#FF455E" points="256.414,322.618 234.784,357.612 278.045,357.612"/>
    <path fill="#1D2328" d="M171.372,286.194c-15.435,16.589-33.538,32.342-51.443,44.805 c-24.932-17.337-49.342-40.309-67.58-63.682c-23.557-30.191-36.009-59.803-36.009-85.636c0-50.774,36.282-93.73,86.27-102.141 c4.45-0.748,7.45-4.963,6.702-9.412c-0.749-4.45-4.963-7.451-9.413-6.702c-27.631,4.649-52.921,19.005-71.212,40.424 C10.189,125.515,0,153.156,0,181.682c0,29.511,13.646,62.599,39.466,95.687c18.795,24.087,43.805,47.749,69.456,65.855 l-11.554,18.895c-1.543,2.522-1.602,5.68-0.157,8.258s4.171,4.174,7.127,4.174h7.422v116.206c0,4.512,3.658,8.17,8.17,8.17 c4.513,0,8.17-3.658,8.17-8.17V374.552h7.421c4.513,0,8.17-3.658,8.17-8.17c0-4.512-3.657-8.17-8.17-8.17h-16.609l7.068-11.558 c19.904-13.449,40.212-30.903,57.357-49.328c3.073-3.303,2.887-8.473-0.416-11.547 C179.614,282.704,174.446,282.891,171.372,286.194z"/>
    <path fill="#1D2328" d="M90.026,99.713c-34.3,12.548-57.345,45.488-57.345,81.969c0,4.512,3.657,8.17,8.17,8.17 s8.17-3.658,8.17-8.17c0-29.648,18.735-56.422,46.619-66.623c4.238-1.55,6.416-6.242,4.866-10.48 C98.957,100.34,94.267,98.161,90.026,99.713z"/>
    <path fill="#1D2328" d="M483.313,103.851c-18.289-21.419-43.58-35.775-71.212-40.424c-4.448-0.748-8.663,2.252-9.413,6.702 c-0.747,4.449,2.252,8.664,6.702,9.412c49.988,8.411,86.27,51.367,86.27,102.141c0,25.833-12.451,55.445-36.008,85.636 c-18.238,23.374-42.649,46.345-67.58,63.682c-17.907-12.464-36.011-28.219-51.443-44.805c-3.073-3.303-8.244-3.49-11.547-0.416 c-3.304,3.073-3.49,8.243-0.417,11.547c15.719,16.895,34.104,32.975,52.396,45.901l-11.553,18.894 c-1.543,2.522-1.602,5.68-0.157,8.258c1.446,2.579,4.171,4.174,7.127,4.174h7.421l0.001,116.206c0,4.512,3.658,8.17,8.17,8.17 c4.513,0,8.17-3.658,8.17-8.17l-0.001-116.206h7.422c4.513,0,8.17-3.658,8.17-8.17c0-4.512-3.657-8.17-8.17-8.17h-16.609 l7.072-11.567c27.364-18.485,54.406-43.64,74.41-69.275c25.82-33.09,39.467-66.179,39.467-95.69 C512,153.156,501.811,125.515,483.313,103.851z"/>
    <path fill="#1D2328" d="M349.624,251.608C379.832,212.893,395.8,174.231,395.8,139.8C395.8,62.713,333.086,0,256,0 S116.2,62.713,116.2,139.8c0,34.431,15.967,73.093,46.176,111.808c22.323,28.609,52.119,56.719,82.605,78.061l-14.313,23.408 c-1.543,2.522-1.602,5.68-0.157,8.258c1.446,2.579,4.171,4.174,7.127,4.174h10.192v138.32c0,4.512,3.657,8.17,8.17,8.17 c4.513,0,8.17-3.658,8.17-8.17V365.51h10.193c4.513,0,8.17-3.658,8.17-8.17c0-4.512-3.658-8.17-8.17-8.17h-22.154l9.846-16.102 C294.252,311.361,326.091,281.768,349.624,251.608z M175.259,241.555C147.312,205.74,132.54,170.554,132.54,139.8 c0-68.076,55.384-123.46,123.46-123.46S379.46,71.724,379.46,139.8c0,30.754-14.772,65.94-42.718,101.755 c-21.77,27.9-50.972,55.313-80.741,75.881C226.231,296.868,197.028,269.456,175.259,241.555z"/>
    <path fill="#1D2328" d="M157.051,147.956c4.512,0,8.169-3.657,8.17-8.169c0.007-50.049,40.73-90.766,90.779-90.766 c4.513,0,8.17-3.658,8.17-8.17s-3.657-8.17-8.17-8.17c-59.058,0-107.11,48.046-107.119,107.104 C148.88,144.297,152.538,147.956,157.051,147.956L157.051,147.956z"/>
    <path fill="#1D2328" d="M170.811,169.175c-1.507-4.253-6.176-6.482-10.428-4.975c-4.253,1.506-6.481,6.174-4.975,10.428 c6.42,18.129,17.432,37.265,32.734,56.876c1.611,2.064,4.018,3.145,6.447,3.145c1.757,0,3.527-0.564,5.021-1.729 c3.558-2.776,4.191-7.91,1.415-11.468C186.806,203.23,176.64,185.641,170.811,169.175z"/>
</svg>