<svg xmlns="http://www.w3.org/2000/svg" viewBox="0 0 512 512">
    <path fill="#4dbaf6" d="M102 256h118.67v245.9H102z"/>
    <path fill="#fea02c" d="M342.202 10.001l10.591 21.445 23.67 3.433-17.123 16.7 4.05 23.573-21.174-11.125-21.167 11.136 4.037-23.575-17.132-16.69 23.668-3.446z"/>
    <path fill="#00a570" d="M502.002 448.001l-90.481-113.289h74.822l-84.447-115.749h64.083L342.214 64.001 218.45 218.963h64.082l-84.445 115.749h74.821l-90.481 113.289z"/>
    <circle cx="326.66" cy="301.05" r="24" fill="#a0e557"/>
    <circle cx="401.32" cy="424" r="24" fill="#d661a4"/>
    <path fill="#fea02c" d="M28.06 415.75h148V502h-148z"/>
    <path fill="#ef3c3c" d="M10 366h184v49.75H10z"/>
    <path fill="#a0e557" d="M85.55 366h32.911v49.75H85.55z"/>
    <path d="M102.05 366.001l41.16-41.909c15.458-15.739 42.223-4.794 42.223 17.267 0 13.609-11.033 24.642-24.642 24.642H102.05" fill="#a0e557"/>
    <path d="M102.259 366.001l-41.16-41.909c-15.458-15.739-42.223-4.794-42.223 17.267 0 13.609 11.033 24.642 24.642 24.642h58.741" fill="#a0e557"/>
    <circle cx="354.21" cy="176.8" r="24" fill="#fea02c"/>
    <path fill="#d661a4" d="M176.06 448h134.16v53.898H176.06z"/>
    <path d="M292.659 301.05c0 18.748 15.252 34 34 34s34-15.252 34-34c0-15.269-10.118-28.217-24-32.497v-3.898c0-5.522-4.478-10-10-10s-10 4.478-10 10v3.898c-13.882 4.28-24 17.228-24 32.497zm34 14c-7.72 0-14-6.28-14-14s6.28-14 14-14 14 6.28 14 14-6.28 14-14 14zM354.215 210.798c18.748 0 34-15.252 34-34s-15.252-34-34-34-34 15.252-34 34 15.252 34 34 34zm0-48c7.72 0 14 6.28 14 14s-6.28 14-14 14-14-6.28-14-14 6.28-14 14-14zM303.401 183.871c1.87-1.86 2.931-4.44 2.931-7.07s-1.061-5.21-2.931-7.07a10.013 10.013 0 00-7.069-2.93c-2.63 0-5.21 1.06-7.07 2.93a10.06 10.06 0 00-2.93 7.07c0 2.63 1.069 5.21 2.93 7.07a10.08 10.08 0 007.07 2.93c2.64 0 5.21-1.07 7.069-2.93zM342.212 129.631c2.63 0 5.21-1.07 7.069-2.93 1.87-1.86 2.931-4.44 2.931-7.07s-1.061-5.21-2.931-7.07a10.06 10.06 0 00-7.069-2.93c-2.63 0-5.21 1.07-7.07 2.93-1.86 1.86-2.93 4.44-2.93 7.07s1.069 5.21 2.93 7.07c1.86 1.86 4.44 2.93 7.07 2.93zM360.332 230.331c-2.63 0-5.21 1.069-7.07 2.93-1.86 1.87-2.93 4.44-2.93 7.07s1.069 5.21 2.93 7.069a10.077 10.077 0 007.07 2.931c2.64 0 5.21-1.07 7.069-2.931 1.87-1.859 2.931-4.439 2.931-7.069s-1.061-5.2-2.931-7.07a10.054 10.054 0 00-7.069-2.93zM401.321 307.331c2.631 0 5.21-1.061 7.07-2.931 1.86-1.859 2.93-4.439 2.93-7.069s-1.069-5.21-2.93-7.07-4.439-2.93-7.07-2.93c-2.63 0-5.21 1.069-7.069 2.93a10.077 10.077 0 00-2.931 7.07c0 2.64 1.07 5.21 2.931 7.069a10.068 10.068 0 007.069 2.931zM360.332 349.001c-2.63 0-5.21 1.069-7.07 2.93s-2.93 4.44-2.93 7.07 1.069 5.21 2.93 7.069c1.86 1.86 4.44 2.931 7.07 2.931s5.21-1.07 7.069-2.931c1.87-1.859 2.931-4.439 2.931-7.069s-1.061-5.21-2.931-7.07a10.067 10.067 0 00-7.069-2.93zM302.662 364.001c-2.631 0-5.21 1.069-7.07 2.93s-2.93 4.43-2.93 7.07c0 2.63 1.069 5.21 2.93 7.069a10.075 10.075 0 007.07 2.931c2.63 0 5.21-1.07 7.069-2.931a10.073 10.073 0 002.931-7.069c0-2.641-1.07-5.21-2.931-7.07a10.067 10.067 0 00-7.069-2.93zM274.002 399.001c-2.63 0-5.21 1.069-7.07 2.93s-2.93 4.44-2.93 7.07 1.069 5.21 2.93 7.069c1.86 1.86 4.44 2.931 7.07 2.931s5.21-1.07 7.069-2.931c1.86-1.859 2.931-4.439 2.931-7.069s-1.07-5.21-2.931-7.07a10.067 10.067 0 00-7.069-2.93zM336.742 399.001a10.068 10.068 0 00-7.07 2.93c-1.86 1.86-2.93 4.44-2.93 7.07s1.069 5.21 2.93 7.069a10.073 10.073 0 007.07 2.931c2.63 0 5.21-1.07 7.069-2.931 1.86-1.859 2.931-4.439 2.931-7.069s-1.07-5.21-2.931-7.07a10.067 10.067 0 00-7.069-2.93zM1.342 149.173a9.997 9.997 0 0013.66 3.66l14.199-8.198-1.406 5.249c-1.43 5.335 1.736 10.818 7.071 12.247.867.232 1.737.344 2.594.344 4.415 0 8.456-2.947 9.653-7.415l6.582-24.566 23.771-13.724v27.446L59.481 162.2c-3.905 3.905-3.905 10.237 0 14.143 3.906 3.904 10.236 3.904 14.143 0l3.842-3.842v16.396c0 5.522 4.478 10 10 10s10-4.478 10-10v-16.396l3.842 3.842c1.953 1.952 4.512 2.929 7.071 2.929s5.118-.977 7.071-2.929c3.905-3.905 3.905-10.237 0-14.143l-17.984-17.984v-27.447l23.771 13.724 6.583 24.567c1.197 4.469 5.237 7.415 9.653 7.415a10.023 10.023 0 002.594-.344c5.335-1.43 8.501-6.913 7.071-12.247l-1.406-5.249 14.199 8.198a9.997 9.997 0 0013.66-3.66c2.762-4.783 1.123-10.898-3.66-13.66l-14.2-8.198 5.249-1.406c5.335-1.43 8.501-6.912 7.071-12.247-1.43-5.334-6.914-8.501-12.247-7.071l-24.568 6.582-23.77-13.724 23.77-13.724 24.568 6.582c.867.232 1.737.344 2.594.344 4.415-.001 8.456-2.947 9.653-7.415 1.43-5.335-1.736-10.817-7.071-12.247l-5.249-1.406 14.2-8.198c4.783-2.762 6.422-8.877 3.66-13.66-2.761-4.781-8.877-6.422-13.66-3.66l-14.199 8.198 1.406-5.249c1.43-5.334-1.736-10.817-7.071-12.247-5.33-1.43-10.817 1.736-12.247 7.071l-6.583 24.567-23.771 13.724V54.682l17.984-17.984c3.905-3.905 3.905-10.237 0-14.143-3.906-3.904-10.236-3.904-14.143 0l-3.842 3.842V10.001c0-5.522-4.478-10-10-10s-10 4.478-10 10v16.396l-3.842-3.842c-3.906-3.904-10.236-3.904-14.143 0-3.905 3.905-3.905 10.237 0 14.143l17.984 17.984v27.446L53.695 68.404l-6.582-24.566c-1.43-5.334-6.913-8.504-12.247-7.071-5.335 1.429-8.501 6.912-7.071 12.247l1.406 5.249-14.199-8.198c-4.785-2.762-10.899-1.122-13.66 3.66-2.762 4.783-1.123 10.898 3.66 13.66l14.2 8.198-5.249 1.406c-5.335 1.43-8.501 6.912-7.071 12.247 1.197 4.468 5.237 7.415 9.653 7.415a9.98 9.98 0 002.594-.344l24.567-6.583 23.77 13.724-23.77 13.724-24.567-6.583a10 10 0 00-12.247 7.071c-1.43 5.335 1.736 10.817 7.071 12.247l5.249 1.406-14.2 8.198c-4.783 2.764-6.422 8.879-3.66 13.662z"/>
    <path d="M502.002 492.001H384.215v-34h117.787a10.001 10.001 0 007.814-16.24l-77.51-97.049h54.037a10 10 0 008.078-15.894l-72.851-99.855h44.409a10.001 10.001 0 007.814-16.24l-103.86-130.04a9.983 9.983 0 003.313-9.225l-3.159-18.391 13.359-13.029a10 10 0 00-5.547-17.056l-18.467-2.678-8.264-16.731a10 10 0 00-8.966-5.572h-.003a10.002 10.002 0 00-8.966 5.576l-8.254 16.736-18.466 2.688a10 10 0 00-5.538 17.059l13.366 13.021-3.149 18.394a9.983 9.983 0 003.302 9.21L210.637 212.723a10 10 0 007.814 16.24h44.408l-32.188 44.121v-17.083c0-5.522-4.478-10-10-10H102.002c-5.522 0-10 4.478-10 10v85.285l-23.769-24.201c-10.054-10.236-24.549-13.22-37.828-7.79-13.28 5.431-21.529 17.717-21.529 32.064a34.424 34.424 0 003.257 14.642h-2.131c-5.522 0-10 4.478-10 10v49.75c0 5.522 4.478 10 10 10h8.058v66.25h-8.058c-5.522 0-10 4.478-10 10s4.478 10 10 10h492c5.522 0 10-4.478 10-10s-4.478-10-10-10zm-482-86.25v-29.75h55.545v29.75H20.002zm146.331-77.944c5.698 2.33 9.1 7.396 9.1 13.553 0 8.073-6.568 14.642-14.642 14.642h-34.903l24.457-24.902c4.313-4.394 10.291-5.621 15.988-3.293zm28.965 16.505c.894.26 1.831.4 2.789.4h12.583v49.289c0 .784.1 1.544.271 2.276l-6.938 8.687V366c0-5.522-4.478-10-10-10h-1.826a34.38 34.38 0 003.121-11.688zm56.826.4l-21.454 26.862v-26.862h21.454zm135.198 79.289c0-7.72 6.28-14 14-14s14 6.28 14 14-6.28 14-14 14-14-6.28-14-14zm-201.263 34h114.155v33.897H186.059v-33.897zm-90.512-82h12.91v29.75h-12.91v-29.75zm32.91 0h55.545v29.75h-55.545v-29.75zm58.944 49.75l-1.341 1.679v-1.679h1.341zm176.814 66.148h-44v-33.897h44v33.897zM333.062 41.348a10.001 10.001 0 007.528-5.472l1.617-3.279 1.619 3.277a10 10 0 007.53 5.469l3.618.524-2.618 2.553a10.002 10.002 0 00-2.873 8.853l.619 3.603-2.849-1.497a9.986 9.986 0 00-5.04-1.377c-1.82 0-3.576.505-5.103 1.412l-2.787 1.466.617-3.604a10 10 0 00-2.878-8.851l-2.618-2.551 3.618-.526zm-41.616 173.084a10 10 0 00-8.914-5.469h-43.297l102.98-128.938 102.979 128.938h-43.298a10 10 0 00-8.078 15.894l72.851 99.855h-55.147a10.001 10.001 0 00-7.814 16.24l77.51 97.049h-48.924a33.79 33.79 0 003.028-14c0-15.269-10.118-28.217-24-32.497v-3.897c0-5.522-4.478-10-10-10s-10 4.478-10 10v3.897c-13.882 4.28-24 17.228-24 32.497 0 4.95 1.072 9.651 2.982 13.897l-167.092.103 77.51-97.049a10.001 10.001 0 00-7.814-16.24h-55.147l9.894-13.562a10.036 10.036 0 001.944-2.665l61.012-83.629a9.998 9.998 0 00.835-10.424zm-80.776 86.066l-18.675 25.598c-3.604-7.463-9.883-13.444-18.092-16.801a37.19 37.19 0 00-2.522-.926v-42.368h39.289v34.497zm-59.289-34.497v41.902c-5.638 1.602-10.898 4.695-15.306 9.182l-24.073 24.511v-75.595h39.379zM28.876 341.359c0-6.156 3.401-11.223 9.1-13.553 1.9-.777 3.83-1.158 5.721-1.158 3.778 0 7.393 1.523 10.268 4.45L78.422 356H43.517c-8.073.001-14.641-6.567-14.641-14.641zm9.183 126.642H79.05c5.522 0 10-4.478 10-10s-4.478-10-10-10H38.059v-22.25h128v66.25h-128v-24z"/>
    <path d="M123.595 448.001h-.124c-5.522 0-10 4.478-10 10s4.478 10 10 10h.124c5.522 0 10-4.478 10-10s-4.478-10-10-10z"/>
</svg>