<svg xmlns="http://www.w3.org/2000/svg" viewBox="0 0 512 512">
    <path d="m15 115.003h482v281.995h-482z" fill="#e8edf5"/>
    <path d="m15 115.003h241v281.995h-241z" fill="#f2f6fb"/>
    <path d="m497 411.997h-482c-8.284 0-15-6.716-15-15v-281.994c0-8.284 6.716-15 15-15h482c8.284 0 15 6.716 15 15v281.994c0 8.284-6.716 15-15 15zm-467-30h452v-251.994h-452z"
          fill="#d20000"/>
    <path d="m401.014 167.46h-51.237c-8.284 0-15 6.716-15 15s6.716 15 15 15h10.618v121.801c0 8.284 6.716 15 15 15s15-6.716 15-15v-121.801h10.619c8.284 0 15-6.716 15-15s-6.716-15-15-15z"
          fill="#d20000"/>
    <path d="m159.104 197.46c8.284 0 15-6.716 15-15s-6.716-15-15-15h-33.849c-8.284 0-15 6.716-15 15v136.801c0 8.284 6.716 15 15 15h33.849c8.284 0 15-6.716 15-15s-6.716-15-15-15h-18.849v-38.4h6.95c8.284 0 15-6.716 15-15s-6.716-15-15-15h-6.95v-38.4h18.849z"
          fill="#ff2828"/>
    <path d="m239.201 168.005c-7.981-2.217-16.248 2.467-18.46 10.45l-4.497 16.23-4.497-16.23c-2.212-7.984-10.481-12.659-18.46-10.45-7.983 2.212-12.662 10.477-10.45 18.46l17.843 64.396-17.843 64.395c-2.212 7.983 2.467 16.248 10.45 18.46 1.34.372 2.688.549 4.014.549 6.573 0 12.605-4.355 14.446-10.999l4.497-16.23 4.497 16.23c1.841 6.645 7.872 10.999 14.446 10.999 1.326 0 2.675-.178 4.014-.549 7.983-2.212 12.662-10.477 10.45-18.46l-17.843-64.395 17.843-64.396c2.212-7.984-2.467-16.248-10.45-18.46z"
          fill="#ff2828"/>
    <path d="m314.577 197.46c8.284 0 15-6.716 15-15s-6.716-15-15-15h-39.669c-8.284 0-15 6.716-15 15s6.716 15 15 15h4.834v106.801h-4.834c-8.284 0-15 6.716-15 15s6.716 15 15 15h39.669c8.284 0 15-6.716 15-15s-6.716-15-15-15h-4.835v-106.801z"
          fill="#d20000"/>
    <path d="m75.135 245.433 18.862-32.334c4.175-7.155 1.758-16.341-5.397-20.515-7.153-4.174-16.34-1.759-20.515 5.397l-23.272 39.893c-2.726 4.671-2.726 10.446 0 15.117l23.273 39.894c2.788 4.779 7.81 7.444 12.97 7.444 2.567 0 5.168-.66 7.545-2.047 7.155-4.174 9.572-13.359 5.397-20.515z"
          fill="#ff2828"/>
    <path d="m467.187 237.874-23.273-39.893c-4.175-7.157-13.36-9.572-20.515-5.397s-9.572 13.359-5.397 20.515l18.863 32.334-18.863 32.335c-4.175 7.155-1.758 16.341 5.397 20.515 2.377 1.387 4.978 2.047 7.545 2.047 5.159 0 10.183-2.666 12.97-7.444l23.273-39.894c2.726-4.672 2.726-10.447 0-15.118z"
          fill="#d20000"/>
    <path d="m30 130.003h226v251.994h-226z" fill="none"/>
    <path d="m256 130.003h226v251.994h-226z" fill="none"/>
    <path d="m30 381.997v-251.994h226v-30h-241c-8.284 0-15 6.716-15 15v281.994c0 8.284 6.716 15 15 15h241v-30z" fill="#ff2828"/>
</svg>