<svg xmlns="http://www.w3.org/2000/svg" viewBox="0 0 448 448">
    <path d="M324.8,0H123.2c-9.6,0-16.8,7.2-16.8,16.8v398.4c0,9.6,7.2,16.8,16.8,16.8h13.6v16H180v-16h88v16h43.2v-16h13.6
        c9.6,0,16.8-7.2,16.8-16.8V16.8C341.6,8,333.6,0,324.8,0z M325.6,415.2c0,0.8-0.8,0.8-0.8,0.8H123.2c-0.8,0-0.8,0-0.8-0.8V160
        h203.2V415.2z M325.6,144H122.4V16.8l0.8-0.8h201.6c0.8,0,0.8,0,0.8,0.8V144z"/>
    <path d="M154.4,53.6c-4.8,0-8,3.2-8,8v51.2c0,4,4,8,8,8c4.8,0,8-3.2,8-8V61.6C162.4,56.8,159.2,53.6,154.4,53.6z"/>
    <path d="M154.4,192c-4.8,0-8,3.2-8,8v51.2c0,4.8,3.2,8,8,8c4.8,0,8-3.2,8-8V200C162.4,196,159.2,192,154.4,192z"/>
</svg>
