<svg viewBox="0 0 512 512" xmlns="http://www.w3.org/2000/svg">
    <path d="m504.527344 256c0 137.257812-111.269532 248.527344-248.527344 248.527344s-248.527344-111.269532-248.527344-248.527344 111.269532-248.527344 248.527344-248.527344 248.527344 111.269532 248.527344 248.527344zm0 0" fill="#efe2dd"/>
    <path d="m504.527344 256c0 137.261719-111.269532 248.527344-248.527344 248.527344-80.980469 0-152.914062-38.726563-198.289062-98.679688 44.964843 44.925782 107.070312 72.699219 175.648437 72.699219 137.257813 0 248.527344-111.269531 248.527344-248.527344 0-56.289062-18.714844-108.210937-50.269531-149.875 45.046874 44.984375 72.910156 107.160157 72.910156 175.855469zm0 0" fill="#e1d3ce"/>
    <path d="m459.972656 113.96875c-12.957031 24.015625-38.351562 40.332031-67.550781 40.332031-42.375 0-76.714844-34.34375-76.714844-76.71875 0-21.925781 9.199219-41.695312 23.945313-55.679687 49.074218 17.539062 91.019531 50.058594 120.320312 92.066406zm0 0" fill="#cdbfba"/>
    <path d="m459.972656 113.96875c-12.957031 24.015625-38.351562 40.332031-67.550781 40.332031-31.75 0-58.988281-19.277343-70.648437-46.761719 14.054687 15.785157 34.523437 25.730469 57.324218 25.730469 28.3125 0 53.050782-15.335937 66.335938-38.15625 5.140625 6.039063 9.992187 12.335938 14.539062 18.855469zm0 0" fill="#b9acac"/>
    <path d="m260.753906 113.9375c0 22.292969-18.070312 40.363281-40.359375 40.363281-22.289062 0-40.359375-18.070312-40.359375-40.363281 0-22.289062 18.070313-40.359375 40.359375-40.359375 22.289063 0 40.359375 18.070313 40.359375 40.359375zm0 0" fill="#cdbfba"/>
    <path d="m260.753906 113.9375c0 22.292969-18.066406 40.363281-40.363281 40.363281-10.5625 0-20.179687-4.058593-27.375-10.703125 4.195313 1.484375 8.71875 2.289063 13.425781 2.289063 22.292969 0 40.359375-18.066407 40.359375-40.359375 0-11.742188-5.011719-22.304688-13.015625-29.667969 15.707032 5.519531 26.96875 20.488281 26.96875 38.078125zm0 0" fill="#b9acac"/>
    <path d="m442.304688 323.773438c0 12.714843-10.308594 23.023437-23.023438 23.023437-12.71875 0-23.023438-10.308594-23.023438-23.023437 0-12.714844 10.304688-23.023438 23.023438-23.023438 12.714844 0 23.023438 10.308594 23.023438 23.023438zm0 0" fill="#cdbfba"/>
    <path d="m442.300781 323.777344c0 12.707031-10.304687 23.023437-23.019531 23.023437-7.457031 0-14.070312-3.539062-18.289062-9.03125 1.695312.410157 3.46875.617188 5.292968.617188 12.71875 0 23.023438-10.3125 23.023438-23.03125 0-5.261719-1.765625-10.113281-4.726563-13.992188 10.164063 2.394531 17.71875 11.523438 17.71875 22.414063zm0 0" fill="#b9acac"/>
    <path d="m287.121094 213.628906c0 9.054688-7.339844 16.394532-16.394532 16.394532-9.054687 0-16.394531-7.339844-16.394531-16.394532 0-9.054687 7.339844-16.394531 16.394531-16.394531 9.054688 0 16.394532 7.339844 16.394532 16.394531zm0 0" fill="#cdbfba"/>
    <path d="m262.140625 356.625c0 18.144531-14.710937 32.851562-32.855469 32.851562-18.140625 0-32.851562-14.707031-32.851562-32.851562s14.710937-32.851562 32.851562-32.851562c18.144532 0 32.855469 14.707031 32.855469 32.851562zm0 0" fill="#cdbfba"/>
    <path d="m262.140625 356.625c0 18.148438-14.710937 32.847656-32.847656 32.847656-8.691407 0-16.605469-3.378906-22.472657-8.890625 1.734376.28125 3.515626.429688 5.332032.429688 18.148437 0 32.84375-14.710938 32.84375-32.859375 0-9.445313-3.984375-17.957032-10.363282-23.9375 15.597657 2.542968 27.507813 16.085937 27.507813 32.410156zm0 0" fill="#b9acac"/>
    <path d="m152.648438 371.410156c0 9.054688-7.339844 16.394532-16.394532 16.394532-9.054687 0-16.394531-7.339844-16.394531-16.394532 0-9.054687 7.339844-16.394531 16.394531-16.394531 9.054688 0 16.394532 7.339844 16.394532 16.394531zm0 0" fill="#cdbfba"/>
    <path d="m457.242188 97.730469c-26.324219-33.335938-60.601563-59.929688-99.5-76.785157-10.722657-4.644531-21.765626-8.542968-33.027344-11.664062-22.347656-6.1875-45.527344-9.28125-68.714844-9.28125-68.378906 0-132.667969 26.628906-181.019531 74.980469-48.351563 48.351562-74.980469 112.640625-74.980469 181.019531s26.628906 132.667969 74.980469 181.019531c48.351562 48.351563 112.640625 74.980469 181.019531 74.980469 40.535156 0 79.304688-9.199219 115.238281-27.34375 34.261719-17.300781 64.738281-42.597656 88.140625-73.15625 2.507813-3.277344 1.886719-7.96875-1.394531-10.476562-3.277344-2.511719-7.96875-1.886719-10.476563 1.390624-22.039062 28.78125-50.742187 52.605469-83.007812 68.898438-33.824219 17.078125-70.328125 25.738281-108.5 25.738281-64.386719 0-124.921875-25.070312-170.449219-70.601562-45.527343-45.527344-70.601562-106.0625-70.601562-170.449219s25.074219-124.921875 70.601562-170.449219c45.53125-45.527343 106.0625-70.601562 170.449219-70.601562 24.210938 0 47.875 3.546875 70.402344 10.390625-11.78125 14.796875-18.171875 32.953125-18.171875 52.242187 0 46.425781 37.769531 84.191407 84.191406 84.191407 26.964844 0 51.960937-12.835938 67.699219-34.144532 24.050781 38.078125 36.929687 82.234375 36.929687 128.371094 0 38.078125-8.621093 74.507812-25.621093 108.265625-1.855469 3.6875-.375 8.179687 3.3125 10.039063 3.691406 1.855468 8.183593.371093 10.039062-3.316407 18.0625-35.863281 27.21875-74.550781 27.21875-114.988281 0-58.144531-19.265625-113.324219-54.757812-158.269531zm-64.820313 49.09375c-38.179687 0-69.242187-31.0625-69.242187-69.242188 0-17.660156 6.5-34.183593 18.398437-47.003906 31.828125 12.074219 60.804687 30.90625 84.871094 54.972656 2.425781 2.425781 26.441406 25.953125 24.640625 28.824219-12.625 20.128906-34.707032 32.449219-58.667969 32.449219zm0 0"/>
    <path d="m182.25 98.742188c-4.058594-.792969-7.980469 1.835937-8.78125 5.886718-.601562 3.050782-.90625 6.183594-.90625 9.3125 0 26.375 21.457031 47.832032 47.832031 47.832032s47.835938-21.457032 47.835938-47.832032-21.460938-47.835937-47.835938-47.835937c-3.34375 0-6.683593.347656-9.925781 1.035156-4.039062.851563-6.621094 4.816406-5.769531 8.855469.855469 4.039062 4.824219 6.617187 8.859375 5.769531 2.226562-.472656 4.527344-.710937 6.835937-.710937 18.132813 0 32.886719 14.753906 32.886719 32.886718 0 18.132813-14.753906 32.882813-32.886719 32.882813-18.132812 0-32.882812-14.75-32.882812-32.882813 0-2.160156.207031-4.320312.621093-6.417968.800782-4.046876-1.832031-7.980469-5.882812-8.78125zm0 0"/>
    <path d="m419.28125 354.273438c16.816406 0 30.496094-13.683594 30.496094-30.5 0-16.816407-13.679688-30.5-30.496094-30.5s-30.5 13.683593-30.5 30.5c0 16.816406 13.683594 30.5 30.5 30.5zm0-46.050782c8.574219 0 15.546875 6.976563 15.546875 15.550782 0 8.574218-6.972656 15.550781-15.546875 15.550781s-15.550781-6.976563-15.550781-15.550781c0-8.574219 6.976562-15.550782 15.550781-15.550782zm0 0"/>
    <path d="m294.597656 213.628906c0-13.164062-10.707031-23.871094-23.867187-23.871094-13.164063 0-23.871094 10.710938-23.871094 23.871094s10.707031 23.867188 23.871094 23.867188c13.160156 0 23.867187-10.707032 23.867187-23.867188zm-32.789062 0c0-4.917968 4-8.921875 8.921875-8.921875 4.917969 0 8.917969 4.003907 8.917969 8.921875 0 4.917969-4 8.917969-8.917969 8.917969-4.921875 0-8.921875-4-8.921875-8.917969zm0 0"/>
    <path d="m112.382812 371.410156c0 13.160156 10.710938 23.867188 23.871094 23.867188s23.867188-10.707032 23.867188-23.867188-10.707032-23.867187-23.867188-23.867187c-13.160156-.003907-23.871094 10.707031-23.871094 23.867187zm23.871094-8.921875c4.917969 0 8.921875 4.003907 8.921875 8.921875 0 4.917969-4.003906 8.917969-8.921875 8.917969-4.917968 0-8.921875-4-8.921875-8.917969 0-4.917968 4.003907-8.921875 8.921875-8.921875zm0 0"/>
    <path d="m229.285156 396.949219c22.238282 0 40.328125-18.089844 40.328125-40.324219s-18.089843-40.324219-40.328125-40.324219c-22.234375 0-40.324218 18.089844-40.324218 40.324219s18.089843 40.324219 40.324218 40.324219zm0-65.703125c13.996094 0 25.378906 11.386718 25.378906 25.378906s-11.382812 25.378906-25.378906 25.378906c-13.992187 0-25.375-11.386718-25.375-25.378906s11.382813-25.378906 25.375-25.378906zm0 0"/>
    <path d="m374.511719 197.234375c0 4.945313-4.007813 8.953125-8.953125 8.953125-4.949219 0-8.957032-4.007812-8.957032-8.953125 0-4.949219 4.007813-8.957031 8.957032-8.957031 4.945312 0 8.953125 4.007812 8.953125 8.957031zm0 0"/>
    <path d="m188.992188 247.042969c0 4.949219-4.011719 8.957031-8.957032 8.957031-4.945312 0-8.957031-4.007812-8.957031-8.957031 0-4.945313 4.011719-8.953125 8.957031-8.953125 4.945313 0 8.957032 4.007812 8.957032 8.953125zm0 0"/>
    <path d="m396.792969 246.367188c0 4.945312-4.007813 8.953124-8.953125 8.953124-4.949219 0-8.957032-4.007812-8.957032-8.953124 0-4.949219 4.007813-8.957032 8.957032-8.957032 4.945312 0 8.953125 4.007813 8.953125 8.957032zm0 0"/>
    <path d="m137.769531 154.300781c0 4.945313-4.007812 8.953125-8.953125 8.953125-4.949218 0-8.957031-4.007812-8.957031-8.953125 0-4.949219 4.007813-8.957031 8.957031-8.957031 4.945313 0 8.953125 4.007812 8.953125 8.957031zm0 0"/>
</svg>