<?xml version="1.0" standalone="no"?>
<!DOCTYPE svg PUBLIC "-//W3C//DTD SVG 20010904//EN"
 "http://www.w3.org/TR/2001/REC-SVG-20010904/DTD/svg10.dtd">
<svg version="1.0" xmlns="http://www.w3.org/2000/svg"
 width="700.000000pt" height="700.000000pt" viewBox="0 0 700.000000 700.000000"
 preserveAspectRatio="xMidYMid meet">
<g transform="translate(0.000000,700.000000) scale(0.100000,-0.100000)"
fill="#000000" stroke="none">
<path d="M3298 6996 c-1 -2 -41 -6 -88 -10 -100 -7 -225 -22 -295 -36 -27 -5
-61 -12 -75 -14 -189 -35 -486 -120 -625 -181 -16 -7 -55 -23 -85 -35 -82 -33
-321 -154 -408 -207 -139 -84 -369 -244 -434 -303 -9 -8 -41 -35 -72 -60 -61
-50 -308 -298 -374 -375 -119 -139 -278 -363 -369 -520 -161 -277 -319 -671
-379 -948 -20 -90 -53 -272 -59 -322 -4 -33 -9 -69 -11 -80 -19 -99 -26 -567
-11 -715 9 -81 25 -209 33 -250 2 -14 7 -41 10 -60 29 -180 115 -479 196 -680
52 -129 168 -369 213 -439 14 -23 25 -43 25 -46 0 -14 207 -310 286 -409 133
-165 304 -339 504 -510 96 -82 350 -259 465 -324 116 -65 270 -141 430 -211
204 -90 637 -206 845 -227 36 -3 68 -8 71 -10 15 -9 234 -19 414 -19 183 0
335 8 425 21 577 86 1010 244 1475 539 56 36 261 185 314 230 736 613 1188
1473 1269 2410 14 161 7 537 -12 695 -2 19 -7 58 -10 86 -4 28 -8 59 -10 70
-2 10 -11 60 -21 109 -96 515 -327 1030 -653 1455 -279 363 -622 667 -1015
900 -314 185 -769 358 -1092 415 -22 4 -49 9 -60 11 -23 4 -217 31 -285 40
-48 6 -526 15 -532 10z m517 -269 c11 -3 47 -8 80 -11 68 -8 236 -36 245 -41
3 -2 23 -6 45 -9 57 -9 144 -32 275 -73 386 -119 762 -320 1085 -582 168 -136
370 -341 485 -491 19 -25 37 -47 40 -50 3 -3 33 -43 67 -90 191 -267 346 -576
448 -892 48 -149 105 -391 120 -513 4 -27 8 -61 11 -75 12 -75 18 -207 19
-390 0 -248 -12 -406 -45 -575 -5 -27 -12 -61 -14 -75 -22 -124 -103 -401
-156 -535 -328 -824 -975 -1485 -1780 -1818 -239 -99 -567 -189 -775 -213 -21
-2 -51 -7 -65 -9 -137 -27 -638 -26 -807 0 -18 3 -45 7 -60 9 -738 109 -1412
467 -1918 1017 -101 110 -125 139 -210 254 -76 102 -195 279 -195 291 0 2 -11
21 -24 42 -113 179 -284 603 -331 818 -43 200 -53 251 -61 314 -3 25 -7 56
-10 70 -27 186 -27 595 1 805 40 303 133 639 246 894 384 862 1119 1519 2009
1795 104 32 256 71 320 82 14 3 61 11 105 19 107 19 154 24 255 31 47 4 87 8
89 10 6 5 481 -3 506 -9z"/>
<path d="M2410 5829 c-83 -10 -134 -26 -201 -66 -131 -76 -226 -209 -252 -349
-9 -45 -13 -162 -12 -341 0 -150 -2 -273 -5 -274 -3 0 -79 -2 -170 -3 -122 -2
-180 -7 -224 -20 -174 -51 -317 -198 -362 -370 -20 -75 -17 -210 6 -279 58
-176 214 -319 388 -356 29 -6 123 -11 207 -11 140 0 155 -2 156 -17 1 -10 2
-127 3 -260 l1 -243 -157 0 c-86 0 -181 -5 -210 -11 -190 -39 -364 -217 -404
-411 -9 -45 -5 -164 7 -213 32 -132 133 -266 250 -332 97 -55 155 -66 339 -69
91 -1 167 -2 170 -3 3 0 5 -124 5 -273 -1 -150 3 -298 7 -328 14 -90 77 -209
149 -280 101 -100 223 -151 362 -151 164 0 309 73 409 206 101 134 110 177
109 541 -1 219 2 283 11 286 7 2 240 3 518 3 l505 0 3 -285 c2 -301 9 -366 44
-439 24 -53 83 -138 113 -164 11 -10 31 -28 45 -40 36 -32 147 -84 205 -97 65
-15 170 -14 231 1 128 31 274 142 331 251 63 121 65 136 67 460 1 163 5 300 9
304 4 4 80 8 170 9 181 2 239 13 336 68 109 61 218 200 245 312 15 60 16 71
17 140 0 189 -105 362 -276 453 -96 51 -113 54 -310 61 l-190 6 0 248 c0 137
2 252 5 257 3 4 86 10 185 12 159 4 187 7 240 28 125 48 210 119 274 230 58
99 71 146 72 260 3 242 -194 474 -431 508 -25 3 -111 6 -192 6 -82 1 -149 3
-149 6 -1 3 -2 138 -3 300 -2 162 -6 305 -10 317 -4 12 -9 31 -11 43 -10 52
-74 157 -132 216 -99 102 -225 155 -366 155 -188 0 -348 -93 -448 -261 -62
-105 -70 -160 -70 -486 l0 -284 -22 -1 c-68 -3 -994 -4 -1005 -1 -10 3 -12 66
-12 286 1 293 -6 359 -42 436 -53 112 -127 192 -230 249 -92 50 -197 72 -298
60z m168 -283 c39 -20 97 -77 116 -114 25 -49 28 -94 30 -454 1 -389 0 -380
65 -420 34 -21 39 -22 706 -21 511 0 680 3 702 12 17 7 41 27 54 44 l24 32 2
363 c2 411 5 430 75 502 127 132 339 98 419 -67 22 -47 23 -54 24 -419 2 -501
-24 -465 338 -468 279 -3 302 -9 373 -89 94 -107 86 -257 -20 -358 -63 -61
-104 -69 -359 -69 -243 0 -268 -5 -309 -63 -22 -30 -22 -35 -22 -452 0 -400 1
-422 19 -454 39 -66 62 -71 316 -71 259 0 290 -6 359 -72 23 -22 51 -59 61
-82 21 -47 25 -130 7 -188 -16 -53 -78 -121 -136 -149 -45 -22 -59 -24 -290
-26 -237 -2 -245 -2 -278 -25 -18 -13 -39 -36 -46 -52 -8 -20 -12 -135 -12
-395 -1 -363 -1 -366 -25 -411 -54 -105 -134 -154 -248 -152 -95 2 -197 80
-228 173 -14 42 -17 103 -18 405 0 395 -1 400 -67 438 -31 18 -61 19 -711 19
-645 0 -679 -1 -710 -19 -65 -39 -66 -45 -67 -436 0 -194 -3 -362 -5 -374 -18
-75 -72 -145 -139 -180 -18 -9 -62 -19 -98 -22 -82 -6 -153 22 -205 79 -68 76
-68 73 -70 485 -2 501 24 465 -338 468 -269 2 -283 5 -355 70 -106 96 -109
264 -7 373 11 12 40 32 65 45 43 22 58 23 295 28 272 5 281 7 321 68 16 24 17
65 18 441 1 457 0 466 -60 506 -26 18 -52 20 -284 25 l-256 5 -51 33 c-83 54
-123 124 -123 220 0 101 64 199 155 238 33 14 80 18 283 20 236 2 244 3 277
26 19 12 40 36 47 52 8 20 12 136 13 395 2 403 2 403 66 476 75 86 209 112
307 61z"/>
<path d="M2799 4004 c-22 -9 -43 -29 -56 -52 -20 -36 -21 -53 -21 -447 0 -470
0 -470 73 -505 43 -21 51 -21 723 -18 l681 3 30 29 c17 16 35 43 40 60 5 17 9
210 9 436 -1 434 0 431 -53 480 l-27 25 -681 2 c-588 2 -687 0 -718 -13z
m1218 -501 l-2 -258 -517 -3 -517 -2 0 260 0 259 519 1 519 0 -2 -257z"/>
</g>
</svg>
