<?xml version="1.0" standalone="no"?>
<!DOCTYPE svg PUBLIC "-//W3C//DTD SVG 20010904//EN"
 "http://www.w3.org/TR/2001/REC-SVG-20010904/DTD/svg10.dtd">
<svg version="1.0" xmlns="http://www.w3.org/2000/svg"
 width="390.000000pt" height="390.000000pt" viewBox="0 0 390.000000 390.000000"
 preserveAspectRatio="xMidYMid meet">
<metadata>
Created by potrace 1.11, written by Peter Selinger 2001-2013
</metadata>
<g transform="translate(0.000000,390.000000) scale(0.100000,-0.100000)"
fill="#000000" stroke="none">
<path d="M348 3837 l-48 -51 0 -497 0 -497 33 -10 c17 -6 187 -52 377 -102
190 -51 399 -107 465 -124 l120 -32 3 -1102 c1 -606 4 -1102 6 -1102 3 0 89
-23 193 -51 103 -28 213 -57 243 -65 124 -33 591 -158 670 -180 l85 -23 53 52
52 51 0 1033 c0 568 4 1033 8 1033 7 0 778 -205 859 -228 29 -9 34 -6 82 42
l51 52 0 500 0 499 -202 55 c-112 30 -207 55 -213 56 -5 1 -170 45 -365 98
-195 53 -404 109 -465 125 -317 85 -618 166 -1175 315 -338 91 -650 174 -692
185 -43 12 -81 21 -85 20 -5 0 -29 -24 -55 -52z"/>
</g>
</svg>
