<svg xmlns="http://www.w3.org/2000/svg" viewBox="0 0 378.4 378.4">
    <path d="M378.4,133.4V62.6c0-17.6-14.4-31.6-32-31.6s-32,14.4-32,32v70c0,15.2,10.4,27.6,24.8,30.8v29.6H220.4
        c0-0.8,0.4-1.6,0.4-2.4v-20.4c0-0.8,0-1.6-0.4-2.4h71.2c9.2,0,16.8-7.6,16.8-16.8v-116c0-9.2-7.6-16.8-16.8-16.8H88.8
        c-9.2,0-16.8,7.6-16.8,16.8v116.8c0,9.2,7.6,16.8,16.8,16.8H160c0,0.8-0.4,1.6-0.4,2.4v20.4c0,0.8,0,1.6,0.4,2.4H39.6V167
        c14-3.2,24.8-16,24.8-30.8V65c0-17.6-14.4-32-32-32c-17.6,0-32,14.4-32,32v70c0,15.2,10.4,27.6,24.8,30.8v27.6h-9.6
        C6.8,193.4,0,200.6,0,209v135.2c0,8.8,7.2,15.6,15.6,15.6h346.8c8.8,0,15.6-7.2,15.6-15.6V209.4c0-8.8-7.2-15.6-15.6-15.6h-8.8
        v-29.6C367.6,161,378.4,148.2,378.4,133.4z M328.8,63c0-10,8-18,17.6-18c9.6,0,17.6,8,17.6,17.6v14.8h-35.2V63z M88.8,154.6
        c-1.2-0.4-2.4-1.6-2.4-2.8V35.4c0-1.2,1.2-2.4,2.4-2.4h202.8c1.2,0,2.4,1.2,2.4,2.4v116.8c0,1.2-1.2,2.4-2.4,2.4H204h-27.2H88.8z
        M206.4,170.6V191c0,1.2-1.2,2.4-2.4,2.4h-27.2c-1.6,0-2.4-0.8-2.4-2.4v-20.4c0-1.2,1.2-2.4,2.4-2.4H204
        C205.2,168.2,206.4,169.4,206.4,170.6z M14.8,65c0-9.6,8-17.6,17.6-17.6C42,47.4,50,55.4,50,65v12H14.8V65z M14.8,135.4v-44H50
        V135c0,9.6-8,17.6-17.6,17.6C22.8,153,14.8,145,14.8,135.4z M364,344.2c0,1.2-0.8,1.6-1.6,1.6H16c-0.8,0-1.6-0.8-1.6-1.6v-60.4
        H364V344.2z M362.4,207.8c0.8,0,1.6,0.8,1.6,1.6v60.4H14.4v-60.4c0-0.8,0.8-1.6,1.6-1.6h160.8H204H362.4z M346.4,150.6
        c-9.6,0-17.6-8-17.6-17.6V91.4H364v41.2C364,142.6,356,150.6,346.4,150.6z"/>
    <circle cx="32.4" cy="107.8" r="7.6"/>
    <circle cx="32.4" cy="135.4" r="7.6"/>
    <circle cx="346.4" cy="107.8" r="7.6"/>
    <circle cx="346.4" cy="135.4" r="7.6"/>
    <path d="M212,232.6h-46.4c-4,0-7.2,3.2-7.2,7.2s3.2,7.2,7.2,7.2H212c4,0,7.2-3.2,7.2-7.2S216,232.6,212,232.6z"/>
    <path d="M212,309h-46.4c-4,0-7.2,3.2-7.2,7.2s3.2,7.2,7.2,7.2H212c4,0,7.2-3.2,7.2-7.2S216,309,212,309z"/>
</svg>
